<svg id="Layer_1" data-name="Layer 1" xmlns="http://www.w3.org/2000/svg" viewBox="0 0 481.87 433.6"><defs><style>.cls-1{fill:#fefefe;}.cls-2{fill:#7b3da0;}.cls-3{fill:#f1cc5b;}.cls-4{fill:#eeedec;}</style></defs><title>exile</title><path class="cls-1" d="M13,33.73l-2.59,2.6C9.88,34.09,10.74,33.23,13,33.73Z" transform="translate(-10.24 -33.59)"/><path class="cls-1" d="M492,37.33l-2.59-2.6C491.61,34.23,492.48,35.09,492,37.33Z" transform="translate(-10.24 -33.59)"/><path class="cls-1" d="M10.38,464.46,13,467.05C10.74,467.56,9.88,466.69,10.38,464.46Z" transform="translate(-10.24 -33.59)"/><path class="cls-2" d="M100.17,408.37c0,.44-.09,1.22,0,1.25,9,2.25,17.07,6.78,26,9.43,11.79,3.51,24.17,3.49,35.81,7.37,2.34.78,5.15.12,7.75.12,19.88,0,39.78-.31,59.65.19,5.67.14,10.55-1.84,15.79-2.81,4.83-.9,10.3,2.28,14.62-2.42.6-.65,2.55-.4,3.76-.11,7.77,1.89,14.77-2.29,22.25-3,7.08-.65,14.33-3,21.33-4.24,6.81-1.2,14-2,20.85-3.32,22.65-4.22,44.63-10.66,64.17-23.43a31.06,31.06,0,0,0,8.17-8.27c1.48-2.14,2.8-5.91-1.52-7-3-.73-3.55-2.37-2.32-4.3,1-1.59,3.2-3.42,4.89-3.44,6.24-.09,12,9.38,9.15,15.05a47.22,47.22,0,0,1-19.68,20.81C379.22,406.46,368,413.79,355,417c-9.43,2.29-18.58,5.44-28.13,7.5-9.33,2-18.95,3.56-28.16,6.87-6.85,2.46-14.73,2-22.12,3-4.85.67-9.64,1.83-14.5,2.52-4.45.63-9.4-1.42-13.21,2.6-.21.22-.85,0-1.27,0-13.88,1.9-61.32,4.56-72.78,2.21a153.07,153.07,0,0,0-19.75-2.3c-6.16-.47-12.51-.85-18.34-2.67-16-5-32.39-9.14-46.7-18.84-8.1-5.49-17.39-9.23-24.22-16.62a2.64,2.64,0,0,0-2.26-.65c-8.87,2.94-6.63-6.24-9.87-9.35-.85-.82-.29-4.92.88-5.75,7.34-5.23,5.92-14.1,9.08-21,3.64-8,4.94-17,8.16-25.15s3.92-17.2,7.07-25.59c2.55-6.79,2.16-14.66,3.2-22,.74-5.28,1.67-10.53,2.58-15.79.83-4.83-2.12-10.31,2.53-14.55.43-.39,0-1.67.06-2.53.86-11.32,1.77-22.63,2.57-33.95.4-5.77,2-11.51,3.27-16.93a71.45,71.45,0,0,0,1.88-14.64c.2-11.24.06-22.48.06-33.72,0-4.76-.33-9.55.1-14.26a78,78,0,0,1,2.55-11.89c.26-1,1.24-2.64,1.84-2.62,2,.07,5.28.25,5.68,1.3,4.78,12.45,17,13.49,26.92,16.27,10.93,3.08,22.46,4.81,34,6.24,8.78,1.09,17.9.06,26.14,2.34,13.57,3.76,27.06,2,40.53,2.11,56.63.33,113.27.14,169.91.14,3,0,6.24.62,9-.21a8.81,8.81,0,0,0,4.9-4.89c.85-2.28.53-5.17.13-7.7-.86-5.42,3.71-7.32,6.46-10.29,1.35-1.46,6.26,1.67,6.5,4.35a78,78,0,0,1,.05,10.37c-.13,3.16,1.75,3.31,4.1,3.19,6.62-.34,12.65-2.95,18.33-5.82,5-2.53,5.82-8.71-.42-12.18-7.3-4.06-15-7.87-23-10-14.82-4-29.53-8.41-44.7-11.41-11.46-2.27-23.22-3.59-34.58-7-7.84-2.35-16.5-1.89-24.77-2.93-4.86-.61-9.65-1.82-14.5-2.51s-10,1.27-14.65-2.43c-1.59-1.26-5-.2-7.62-.2-38.48,0-77-.11-115.43.12-6.14,0-12.23,2-18.39,2.38-6.46.43-13.5-1.5-19.33.45-10.07,3.36-21.21,1.53-30.74,7.23-2.23,1.33-6,0-9,.25-3.35.3-3.48,2.07-1.08,5.51a6.48,6.48,0,0,1,.9,4.68c-.25,1.09-2.09,2.69-3.07,2.59-5.29-.56-10.69-1.07-15.76-2.6s-5.77-6.95-2.14-11.18c5.13-6,12.65-7.12,19.49-9.3A172,172,0,0,1,115.8,94.5c7.35-1.28,15.27-.57,22.14-3,8.83-3.11,17.78-.6,26.23-2.5,19.93-4.49,40-1.7,59.94-2.25s39.77-.3,59.65,0c5.28.07,10.55,1.52,15.79,2.5,4.83.9,10.3-2.32,14.64,2.34.62.67,2.47.13,3.74.23,10,.85,20.25.73,30,2.83,13.8,3,27.72,5.43,41.39,9.42,11.16,3.27,22.9,5.16,34.11,8.61a272,272,0,0,1,28.09,10.43c4.05,1.76,7.73,4.88,10.89,8.06,8.46,8.54,7.34,20.53-3.59,25.11-7.25,3-14.12,7.9-22.54,8.31-2.69.13-6,1-7.77,2.77-1.42,1.38-.8,4.7-1.45,7.06a64.67,64.67,0,0,0-2.68,19.69c.22,6.61-4.13,12.78-2.47,19.67-4.64,6.53-1.77,14-2.63,21-.71,5.71-1.76,11.38-2.55,17.09-.73,5.28.1,10.4-2.12,16-2.3,5.78-1.6,12.95-2.63,19.55a376.61,376.61,0,0,1-8.07,38.25c-3.29,12.46-4.64,25.45-10.42,37.21,1.11,6.64-2.93,11.71-5.37,17.23-1.05,2.37-8.3,3.55-9.63,1.55a6,6,0,0,1-.59-4.83c3-7.69,3.53-15.86,5.24-23.8,1.6-7.44,4.2-14.68,6.15-22.08,2.59-9.82,4-19.88,6.75-29.62,2.22-7.86.83-16.43,5-23.88.37-.66.07-1.68.14-2.53.86-10,.54-20.32,2.87-30,3.48-14.4,1.54-29.65,7.51-43.53-1.84-9.41,3.13-18.15,2.7-27.47-.15-3.39-1.08-4.61-4.41-4.25-10,1.07-20.3-2.18-30.12,2.47-2.12,1-5.12.14-7.72.14-48.85,0-97.71.3-146.56-.19-13-.14-26-3.52-39.13-2.4C181,166,175,167.5,169.22,167a106.59,106.59,0,0,1-15.78-2.58c-12.49-3-25.22-5.34-37-10.92-.74-.35-1.14-1.45-1.87-1.76-3.69-1.5-6.62.3-6.63,4.16-.07,12.11,0,24.21,0,36.32,0,7.08-.13,14-2.31,21.06-2,6.61,1.79,14.35-2.81,20.93-.41.58,0,1.69-.07,2.55-.85,11.32-.69,22.83-2.83,33.9-3.08,15.95-5.31,32-9.14,47.94-4.08,16.91-9.91,33.24-14,50.09-1.32,5.47-5.39,9.73-5.48,16C71.25,391.23,73.9,395.09,79,398c3.48,2,7.19,3.5,10.8,5.23C92.42,406.58,95.74,408.58,100.17,408.37Z" transform="translate(-10.24 -33.59)"/><path class="cls-3" d="M100.17,408.37c-4.43.21-7.75-1.79-10.38-5.19.28-1.58.47-3.18.87-4.73.49-1.9,1.14-3.76,1.72-5.64,5-1.41,11.06-5.69,13-8.93,5.15-8.64,9.36-18.12,15.8-25.67,8.89-10.42,13.52-24.3,25.9-31.87,2.33-1.43,3.75-8.77,1.92-10.32-2.4-2-5-.5-7.91.41-5.42,1.67-10.25,4.52-15.56,6.19-1.28.41-3.14-.58-4.51-1.32-.26-.14.24-2.38.87-3.33,5.68-8.44,11.79-16.61,17.12-25.26,5.89-9.55,10-20.35,16.86-29.12,11.84-15.22,22.26-31.39,33.47-47a27.31,27.31,0,0,0,4.12-9.88c.93-4.31-2.73-3.12-5.06-3.3-.41-2.75.08-5.46,2.78-6.5,2.09-.8,5-1.25,6.88-.45a5.82,5.82,0,0,1,3.2,7.48c-1.22,3.34-3.59,6.25-5,9.54-5.3,12-10.19,24.22-15.68,36.14-5.36,11.63-10.8,23.19-13.25,35.87-4.34,3.25-1.58,5.55.94,8.1,2.89,2.92,5.64,5.22,9.81,2,1.55-1.21,3.73-1.61,5.24-2.85,2.14-1.74,4.05-1.58,5.29.52a19.38,19.38,0,0,1,2.27,6.76c.14.85-1.27,2-2.1,2.92-9.42,10.32-18.94,20.55-28.27,31-3.87,4.32-7.33,9-11,13.52s-8.48,7.78-11.25,13.4c-2.16,4.39-7.3,7.22-10.61,11.16C117.83,383.61,107.49,394.86,100.17,408.37Z" transform="translate(-10.24 -33.59)"/><path class="cls-2" d="M268.83,278.64c-5.44.56-.39,6.42-4,8A36.56,36.56,0,0,0,260.6,289c-.72-1.27-2-2.5-2.07-3.8-.89-14.68,4.66-28.15,8.13-42,1.37-5.45,3.21-10.78,4.7-16.19.18-.66-.41-1.52-.64-2.29a5.54,5.54,0,0,0-1.82.67c-8.63,7.94-14.84,17.89-19.82,28.12-3.78,7.76,0,16,5.64,22.76a4.2,4.2,0,0,1,1,3.35c-.27.77-1.86,1.27-3,1.56-8.19,2.22-9.91-4.64-12.25-9.56-1.55-3.26-.67-5.3-3-.24-2.68,5.85-6.72,11.1-10.48,16.39-.56.79-3.33,1.06-4.21.41-3.33-2.5-5-5.33-2-9.73,3.82-5.65,5.94-12.68,10.48-17.54,3.9-4.17,5-8.73,3.51-12.71-2.35-6.19-2.24-12.26-2.27-18.5,0-3.13-1.87-3.48-4.16-2.67-3,1-7.28,1.6-8.56,3.8-3.39,5.81-5.56,12.35-7.9,18.72-.24.63,1.78,3,2.6,3,3-.27,5.25.73,6.49,3.1a10.09,10.09,0,0,1,.91,6c-.12.71-2.76,1.28-4.29,1.42a26.89,26.89,0,0,1-7.76,0c-4.83-1-7.14,2.34-9.5,5.2a8.81,8.81,0,0,0-1.47,5.78c.26,3.34,3.22,2,5.05,2,4.45-.07,8,2.17,10.93,4.81,1.51,1.35,1.6,4.47,1.86,6.84,0,.31-2.79,1.23-4.32,1.35a51.39,51.39,0,0,1-26.36-5.2c-6.46-3.1-8-9.2-2.91-13.81,4.91-4.41,6.35-10.5,9.77-15.56,2.68-4,4-8.76,7.35-12.55a14.27,14.27,0,0,0,3.5-8.77c0-5.79,3.84-9.75,5.54-14.67.34-1,2.45-1.86,3.81-1.95,3.87-.27,7.77-.1,11.67-.1l14.25,0c.42,4.58.63,9.19,1.35,13.72.37,2.32,2.06,4.43,2.42,6.74.66,4.26,2.33,2.37,3.51.64,2.48-3.67,4.09-8.1,7.08-11.25,5.14-5.39,11-10.06,16.71-14.94a2.66,2.66,0,0,1,2.47-.08c3.1,2,6.65,3.7,8.87,6.46,1.27,1.58,1.43,6,.17,7.34-4.42,4.6-1.4,9.88-2.39,14.69-.87.68-2.16,1.18-2.53,2.07C271.74,253.57,267.92,265.61,268.83,278.64Z" transform="translate(-10.24 -33.59)"/><path class="cls-2" d="M188.39,203.39c2.33.18,6-1,5.06,3.3a27.31,27.31,0,0,1-4.12,9.88c-11.21,15.63-21.63,31.8-33.47,47-6.82,8.77-11,19.57-16.86,29.12-5.33,8.65-11.44,16.82-17.12,25.26-.63.95-1.13,3.19-.87,3.33,1.37.74,3.23,1.73,4.51,1.32,5.31-1.67,10.14-4.52,15.56-6.19,2.94-.91,5.51-2.45,7.91-.41,1.83,1.55.41,8.89-1.92,10.32-12.38,7.57-17,21.45-25.9,31.87-6.44,7.55-10.65,17-15.8,25.67-1.93,3.24-8,7.52-13,8.93-4.69-1.16-3.21-5.05-1.92-6.92,10.87-15.73,18.59-33.57,31.83-47.73a4.15,4.15,0,0,0,1.07-3.31c-.21-.77-1.79-1.59-2.8-1.64-3.35-.17-6.35-.18-9.27,2.76-3.7,3.72-8.27,1.83-8.35-3.3a20.7,20.7,0,0,1,2.56-10.49c6.19-10.44,12.89-20.6,19.54-30.77,10.68-16.31,21.32-32.65,32.27-48.77,7.58-11.17,15.6-22,23.6-32.95,1.16-1.58,3.23-2.49,4.88-3.71Z" transform="translate(-10.24 -33.59)"/><path class="cls-2" d="M279.21,239.72a38.3,38.3,0,0,0,7.43-16.81c1-4.88,3.51-4.31,6.13-3.82,3.45.65,4.72,4,3.48,7.47-1.34,3.76-3,7.43-4,11.27-2.47,9.37-4.65,18.81-6.92,28.22a8.6,8.6,0,0,0,0,1.83c3.77-.05,7.53,0,11.27-.3.3,0,1-2.69.55-3.27-3.9-4.67-2.45-8.68,0-13.63,3.39-6.73,5-14.32,8.1-21.23,2.45-5.48,5.81-10.58,9-15.67,2.33-3.68,5.59-3.8,7.86.41s4,7.16,9,3.43c3.7-2.73,8.89-.22,12.81-3.66,1.65-1.45,4.74,0,6.6,2.34,1.64,2.08,1.9,3.93-.24,5.32-3,1.95-6.16,4.24-9.55,4.95-6.73,1.43-12.58,5.76-19.84,5.54-1.64-.05-3.64,1.88-4.95,3.36a15.18,15.18,0,0,0-2.77,5.28c-1.14,3.43-3.87,8.59-2.55,10.12,3.1,3.61,8.18,2.37,12.62.57,3.19-1.29,6.93.35,7.76,3,1.11,3.51-1.62,8.35-5.28,8.58-5.16.31-10.36,0-15.53.17-.87,0-1.7,1.32-2.54,2,.95,1,1.87,2.89,2.86,2.94,6,.28,12.09,0,18.13.17,4.95.12,7.49,2.4,7.55,6.35S333.91,281,329,281.2c-3.88.16-7.79-.19-11.65.1-3.63.27-7.55-1.45-10.84,2.18-1,1.09-4.66,1.16-6.12.2-8-5.23-14.67-.63-21.78,2-5.94,2.2-7.59.84-9.73-7.05,5.42-.57,2.61-5.56,3.63-8.08C276.39,260.79,280,250.65,279.21,239.72Z" transform="translate(-10.24 -33.59)"/><path class="cls-3" d="M188.39,203.39l-2.6,2.59Z" transform="translate(-10.24 -33.59)"/><path class="cls-4" d="M279.21,239.72c.8,10.93-2.82,21.07-6.75,30.84-1,2.52,1.79,7.51-3.63,8.08-.91-13,2.91-25.07,7.85-36.85C277.05,240.9,278.34,240.4,279.21,239.72Z" transform="translate(-10.24 -33.59)"/></svg>